# xmcd CD database file
#
# Track frame offsets:
#	150
#	13935
#	31107
#	48860
#	64012
#	81129
#	101035
#	116482
#	139750
#	161420
#	181425
#
# Disc length: 2723 seconds
#
# Revision: 0
# Processed by: cddbd v1.5PL3 Copyright (c) Steve Scherf et al.
# Submitted via: CDex 1.50
#
DISCID=880aa10b
DTITLE=The Heaters - Up Jumped The Devil
DYEAR=1999
DGENRE=Blues
TTITLE0=What's The Skinny?
TTITLE1=Maybe I'm a Fool
TTITLE2=Rain On My Brain
TTITLE3=(I've Been) Waitin' So Long
TTITLE4=Devil Off My Back
TTITLE5=Jump Back
TTITLE6=Spider Headed Woman
TTITLE7=Don't Stip on My Heart
TTITLE8=Moonshine Whiskey
TTITLE9=What I Am
TTITLE10=Love Is A Jungle
EXTD=YEAR: 1999
EXTT0=
EXTT1=
EXTT2=
EXTT3=
EXTT4=
EXTT5=
EXTT6=
EXTT7=
EXTT8=
EXTT9=
EXTT10=
PLAYORDER=
